<?xml version="1.0" encoding="utf-8"?>
<!-- Generator: Adobe Illustrator 23.0.1, SVG Export Plug-In . SVG Version: 6.00 Build 0)  -->
<svg version="1.1" id="Layer_1" xmlns="http://www.w3.org/2000/svg" xmlns:xlink="http://www.w3.org/1999/xlink" x="0px" y="0px"
	 viewBox="0 0 384 384" style="enable-background:new 0 0 384 384;" xml:space="preserve">
<path d="M0,279c0-73.5,0-147,0-220.5c0.2-0.7,0.6-1.4,0.7-2.1C4.6,29.6,23.6,8.5,49.8,1.9c2.9-0.7,5.8-1.3,8.7-1.9c57,0,114,0,171,0
	c0.7,0.2,1.3,0.6,2,0.7c26.5,4.7,44.1,19.7,53,45.1c3.2,9.3,3.1,18.9,3,28.5c0,3.2,0,6.4,0,10c1.9,0,3.2,0,4.6,0
	c8.5,0,17-0.1,25.5,0c31.5,0.3,57,20.1,64.5,49.9c0.7,2.7,1.3,5.5,1.9,8.3c0,77.7,0,155.5,0,233.2c-1.8,3.7-4.6,6.4-8.2,8.2
	c-2,0-4,0-6,0c-1.9-1.3-4-2.5-5.8-4c-21.5-17.9-43-35.8-64.4-53.7c-2.2-1.8-4.3-2.5-7.1-2.5c-42,0.1-83.9,0.1-125.9,0
	c-3.9,0-7.7-0.2-11.6-0.5c-30.5-2.5-56.6-29.1-58.2-59.7c-0.6-10.6-0.2-21.2-0.3-31.8c0-1.4-0.2-2.9-0.2-4
	c-5.6-1.3-9.6,0.3-13.7,3.8c-20.8,17.7-42,35.1-62.9,52.6c-3.5,3-7.3,4.3-11.8,2.9C3.7,285.8,1.6,282.6,0,279z M22.6,252.1
	c1.8-1.5,3-2.4,4.2-3.5c15.6-13,31.3-26,46.9-39.2c3.9-3.3,8.1-4.8,13.3-4.8c44.6,0.1,89.2,0.1,133.8,0.1c25.3,0,44-18.3,44.2-43.5
	c0.2-31.7,0.2-63.5,0-95.2c-0.1-25.2-18.8-43.6-44.1-43.6c-51.3-0.1-102.7,0-154,0c-3.7,0-7.5,0.3-11.1,1.2
	C36,28.4,22.6,45.1,22.5,65.5c-0.1,61.3,0,122.7,0,184C22.5,250.1,22.6,250.7,22.6,252.1z M287.8,107.3c0,12.3,0,24.6,0,37.3
	c8.2,0,16.2-0.1,24.1,0c6.8,0.1,11.7,4.7,11.8,11c0.1,6.3-5,11.3-11.8,11.5c-6.9,0.1-13.7,0-20.6,0c-1.3,0-2.6,0-3,0
	c-2.7,9-5.1,17.2-7.5,25.6c0.9,0,2.1,0,3.3,0c9.1,0,18.2-0.1,27.4,0.1c2.5,0.1,5.2,0.9,7.4,2.1c4.1,2.5,5.7,7.5,4.3,12.1
	c-1.4,4.8-5.6,8.1-10.9,8.1c-16.4,0.1-32.7,0-49.1,0.1c-1.7,0-3.6,0.3-4.9,1.2c-11.8,7.6-24.7,10.9-38.7,10.9c-32-0.2-64-0.1-96-0.1
	c-1.5,0-2.9,0-4.5,0c0,12-0.1,23.4,0.1,34.9c0.1,3.2,0.9,6.5,1.9,9.5c6,18.3,22.3,29.6,42.8,29.6c44.6,0,89.2,0.1,133.8-0.1
	c4.8,0,8.6,1.4,12.3,4.5c16.2,13.7,32.6,27.2,48.9,40.8c0.7,0.6,1.5,1,2.6,1.8c0-8.9,0-17.3,0-25.7c0-57.2,0-114.5,0-171.7
	c0-22.3-15.5-41.3-36.6-43.4C312.8,106.4,300.4,107.3,287.8,107.3z"/>
<path d="M132.6,125.5c0-1.2,0-2.5,0-3.7c0-8.8,3.3-12.4,12.1-13.4c9.8-1.1,16.7-7.4,17.9-16.7c1.1-8.3-4.1-16.8-12.2-19.8
	c-11.6-4.3-24,3.4-25.2,15.8c-0.1,1.1-0.2,2.2-0.4,3.4c-1,6.3-6,10.2-12.2,9.6c-5.8-0.5-10-5.3-10-11.5c0-19.5,14.5-36.9,33.7-40.3
	c25.3-4.5,48.5,14.4,49,40c0.4,17.4-10.5,33.3-26.9,39.4c-2.1,0.8-3.1,1.6-3.3,4.1c-0.5,6.5-5.8,11.1-11.7,10.7
	c-6.2-0.4-10.5-5.2-10.6-11.8C132.6,129.3,132.6,127.4,132.6,125.5z"/>
<path d="M132.6,167.8c0-6.2,5-11.2,11.2-11.2c6.1,0,11.3,5.1,11.2,11.2c0,6-5.3,11.3-11.3,11.2C137.6,179.1,132.6,174,132.6,167.8z"
	/>
<path d="M240.3,263.4c-23.5,0-47,0-70.4-0.1c-2.4,0-5-0.4-7.2-1.4c-4.3-1.9-6.5-6.4-6-11.1c0.5-4.3,3.7-8.3,8-9.4
	c1.9-0.5,3.9-0.6,5.9-0.6c46.3,0,92.7,0,139,0c1,0,2,0,3,0c6.4,0.5,11.2,5.5,11.1,11.5c-0.1,6.1-4.9,10.8-11.5,11
	c-7.7,0.1-15.5,0-23.2,0C272.8,263.4,256.6,263.4,240.3,263.4z"/>
</svg>
